<?xml version="1.0" encoding="UTF-8" standalone="no"?>
<svg width="886px" height="907px" viewBox="0 0 886 907" version="1.1" xmlns="http://www.w3.org/2000/svg" xmlns:xlink="http://www.w3.org/1999/xlink" xmlns:sketch="http://www.bohemiancoding.com/sketch/ns">
    <title>storyboard</title>
    <description>Created with Sketch (http://www.bohemiancoding.com/sketch)</description>
    <defs></defs>
    <g id="Page-1" stroke="none" stroke-width="1" fill="none" fill-rule="evenodd" sketch:type="MSPage">
        <path d="M301,634.255814 L301,721.744186" id="Line" stroke="#979797" stroke-width="8" stroke-linecap="round" stroke-linejoin="round" sketch:type="MSShapeGroup"></path>
        <path d="M220,180.255814 L220,267.744186" id="Line" stroke="#979797" stroke-width="8" stroke-linecap="round" stroke-linejoin="round" sketch:type="MSShapeGroup"></path>
        <path d="M502,180.255814 L502,267.744186" id="Line" stroke="#979797" stroke-width="8" stroke-linecap="round" stroke-linejoin="round" sketch:type="MSShapeGroup"></path>
        <path d="M502,102.253289 L502,178.746711" id="Line" stroke="#979797" stroke-width="8" stroke-linecap="round" stroke-linejoin="round" sketch:type="MSShapeGroup"></path>
        <path d="M778,180.255814 L778,267.744186" id="Line" stroke="#979797" stroke-width="8" stroke-linecap="round" stroke-linejoin="round" sketch:type="MSShapeGroup"></path>
        <path d="M502,365.255814 L502,452.744186" id="Line" stroke="#979797" stroke-width="8" stroke-linecap="round" stroke-linejoin="round" sketch:type="MSShapeGroup"></path>
        <path d="M406,454.255814 L406,541.744186" id="Line" stroke="#979797" stroke-width="8" stroke-linecap="round" stroke-linejoin="round" sketch:type="MSShapeGroup"></path>
        <path d="M593,454.255814 L593,541.744186" id="Line" stroke="#979797" stroke-width="8" stroke-linecap="round" stroke-linejoin="round" sketch:type="MSShapeGroup"></path>
        <rect d="M403.993182,4 C399.57867,4 396,7.57487841 396,11.9989642 L396,94.0010358 C396,98.4187418 399.58546,102 403.993182,102 L601.006818,102 C605.42133,102 609,98.4251216 609,94.0010358 L609,11.9989642 C609,7.58125824 605.41454,4 601.006818,4 L403.993182,4 Z M403.993182,4" id="Rectangle-1" stroke="#979797" fill="#D8D8D8" sketch:type="MSShapeGroup" x="396" y="4" width="213" height="98" rx="8"></rect>
        <rect d="M678.993182,265 C674.57867,265 671,268.574878 671,272.998964 L671,355.001036 C671,359.418742 674.58546,363 678.993182,363 L876.006818,363 C880.42133,363 884,359.425122 884,355.001036 L884,272.998964 C884,268.581258 880.41454,265 876.006818,265 L678.993182,265 Z M678.993182,265" id="Rectangle-1" stroke="#979797" fill="#D8D8D8" sketch:type="MSShapeGroup" x="671" y="265" width="213" height="98" rx="8"></rect>
        <rect d="M403.993182,265 C399.57867,265 396,268.574878 396,272.998964 L396,355.001036 C396,359.418742 399.58546,363 403.993182,363 L601.006818,363 C605.42133,363 609,359.425122 609,355.001036 L609,272.998964 C609,268.581258 605.41454,265 601.006818,265 L403.993182,265 Z M403.993182,265" id="Rectangle-1" stroke="#979797" fill="#D8D8D8" sketch:type="MSShapeGroup" x="396" y="265" width="213" height="98" rx="8"></rect>
        <rect d="M120.993182,265 C116.57867,265 113,268.574878 113,272.998964 L113,355.001036 C113,359.418742 116.58546,363 120.993182,363 L318.006818,363 C322.42133,363 326,359.425122 326,355.001036 L326,272.998964 C326,268.581258 322.41454,265 318.006818,265 L120.993182,265 Z M120.993182,265" id="Rectangle-1" stroke="#979797" fill="#D8D8D8" sketch:type="MSShapeGroup" x="113" y="265" width="213" height="98" rx="8"></rect>
        <path id="Line" stroke="#979797" stroke-linecap="square" sketch:type="MSShapeGroup" d="M498.563983,104.108571 L499.17828,104.872759"></path>
        <path d="M220.204696,180 L777.795304,180" id="Line" stroke="#979797" stroke-width="8" stroke-linecap="round" stroke-linejoin="round" sketch:type="MSShapeGroup"></path>
        <text id="Home-Page" fill="#000000" sketch:type="MSTextLayer" font-family="HanziPen SC" font-size="41" font-weight="bold">
            <tspan x="408" y="64">Home Page</tspan>
        </text>
        <text id="Portfolio" fill="#000000" sketch:type="MSTextLayer" font-family="HanziPen SC" font-size="41" font-weight="bold">
            <tspan x="428" y="327">Portfolio</tspan>
        </text>
        <rect d="M206.993182,539 C202.57867,539 199,542.574878 199,546.998964 L199,629.001036 C199,633.418742 202.58546,637 206.993182,637 L404.006818,637 C408.42133,637 412,633.425122 412,629.001036 L412,546.998964 C412,542.581258 408.41454,539 404.006818,539 L206.993182,539 Z M206.993182,539" id="Rectangle-1" stroke="#979797" fill="#D8D8D8" sketch:type="MSShapeGroup" x="199" y="539" width="213" height="98" rx="8"></rect>
        <text id="Stocks" fill="#000000" sketch:type="MSTextLayer" font-family="HanziPen SC" font-size="41" font-weight="bold">
            <tspan x="254" y="602">Stocks</tspan>
        </text>
        <rect d="M595.993182,539 C591.57867,539 588,542.574878 588,546.998964 L588,629.001036 C588,633.418742 591.58546,637 595.993182,637 L793.006818,637 C797.42133,637 801,633.425122 801,629.001036 L801,546.998964 C801,542.581258 797.41454,539 793.006818,539 L595.993182,539 Z M595.993182,539" id="Rectangle-1" stroke="#979797" fill="#D8D8D8" sketch:type="MSShapeGroup" x="588" y="539" width="213" height="98" rx="8"></rect>
        <text id="Cash" fill="#000000" sketch:type="MSTextLayer" font-family="HanziPen SC" font-size="41" font-weight="bold">
            <tspan x="653" y="603">Cash</tspan>
        </text>
        <text id="Portfolio" fill="#000000" sketch:type="MSTextLayer" font-family="HanziPen SC" font-size="41" font-weight="bold">
            <tspan x="148" y="327">Accounts</tspan>
        </text>
        <text id="Trading" fill="#000000" sketch:type="MSTextLayer" font-family="HanziPen SC" font-size="41" font-weight="bold">
            <tspan x="708" y="327">Trading</tspan>
        </text>
        <path d="M406.199997,453 L593.199997,453" id="Line" stroke="#979797" stroke-width="8" stroke-linecap="round" stroke-linejoin="round" sketch:type="MSShapeGroup"></path>
        <path d="M406,454.255814 L406,541.744186" id="Line" stroke="#979797" stroke-width="8" stroke-linecap="round" stroke-linejoin="round" sketch:type="MSShapeGroup"></path>
        <path d="M593,454.255814 L593,541.744186" id="Line" stroke="#979797" stroke-width="8" stroke-linecap="round" stroke-linejoin="round" sketch:type="MSShapeGroup"></path>
        <path d="M406.199997,453 L593.199997,453" id="Line" stroke="#979797" stroke-width="8" stroke-linecap="round" stroke-linejoin="round" sketch:type="MSShapeGroup"></path>
        <path d="M207,724.255814 L207,811.744186" id="Line" stroke="#979797" stroke-width="8" stroke-linecap="round" stroke-linejoin="round" sketch:type="MSShapeGroup"></path>
        <path d="M394,724.255814 L394,811.744186" id="Line" stroke="#979797" stroke-width="8" stroke-linecap="round" stroke-linejoin="round" sketch:type="MSShapeGroup"></path>
        <rect d="M7.99318245,809 C3.57866968,809 0,812.574878 0,816.998964 L0,899.001036 C0,903.418742 3.5854603,907 7.99318245,907 L205.006818,907 C209.42133,907 213,903.425122 213,899.001036 L213,816.998964 C213,812.581258 209.41454,809 205.006818,809 L7.99318245,809 Z M7.99318245,809" id="Rectangle-1" stroke="#979797" fill="#D8D8D8" sketch:type="MSShapeGroup" x="0" y="809" width="213" height="98" rx="8"></rect>
        <text id="Stats" fill="#000000" sketch:type="MSTextLayer" font-family="HanziPen SC" font-size="41" font-weight="bold">
            <tspan x="55" y="872">Stats</tspan>
        </text>
        <rect d="M396.993182,809 C392.57867,809 389,812.574878 389,816.998964 L389,899.001036 C389,903.418742 392.58546,907 396.993182,907 L594.006818,907 C598.42133,907 602,903.425122 602,899.001036 L602,816.998964 C602,812.581258 598.41454,809 594.006818,809 L396.993182,809 Z M396.993182,809" id="Rectangle-1" stroke="#979797" fill="#D8D8D8" sketch:type="MSShapeGroup" x="389" y="809" width="213" height="98" rx="8"></rect>
        <text id="Single-Stock" fill="#000000" sketch:type="MSTextLayer" font-family="HanziPen SC" font-size="41" font-weight="bold">
            <tspan x="400" y="873">Single Stock</tspan>
        </text>
        <path d="M207.199997,723 L394.199997,723" id="Line" stroke="#979797" stroke-width="8" stroke-linecap="round" stroke-linejoin="round" sketch:type="MSShapeGroup"></path>
        <path d="M207,724.255814 L207,811.744186" id="Line" stroke="#979797" stroke-width="8" stroke-linecap="round" stroke-linejoin="round" sketch:type="MSShapeGroup"></path>
        <path d="M394,724.255814 L394,811.744186" id="Line" stroke="#979797" stroke-width="8" stroke-linecap="round" stroke-linejoin="round" sketch:type="MSShapeGroup"></path>
        <path d="M207.199997,723 L394.199997,723" id="Line" stroke="#979797" stroke-width="8" stroke-linecap="round" stroke-linejoin="round" sketch:type="MSShapeGroup"></path>
    </g>
</svg>